<svg height="367" viewBox="0 0 369 367" width="369" xmlns="http://www.w3.org/2000/svg"><g fill="none" transform="translate(.522)"><path d="m336.458 141.061c-3.135-12.539-8.359-25.078-14.629-36.571l12.539-29.257-43.886-42.841-29.257 12.539c-11.494-6.269-22.988-11.494-36.571-14.629l-10.449-30.302h-61.649l-11.494 30.302c-12.539 3.135-25.078 8.359-36.571 14.629l-29.258-12.539-42.841 42.841 12.539 29.257c-6.269 11.494-11.494 22.988-14.629 36.571l-30.302 11.494v61.649l30.302 11.494c3.135 12.539 8.359 25.078 14.629 36.571l-12.539 29.257 43.886 42.841 29.257-12.539c11.494 6.269 22.988 11.494 36.571 14.629l11.494 30.302h60.604l11.494-30.302c12.539-3.135 25.078-8.359 36.571-14.629l29.257 12.539 43.886-42.841-12.539-29.257c6.269-11.494 11.494-22.988 14.629-36.571l30.302-11.494v-61.649zm-153.6 117.029c-41.796 0-75.233-33.437-75.233-75.233s33.437-75.233 75.233-75.233 75.233 33.437 75.233 75.233-33.437 75.233-75.233 75.233z" fill="#84dbff"/><g fill="#54c0eb" transform="translate(70.478 70)"><path d="m165.669 166.147c-29.257 29.257-76.278 29.257-105.535 0l-27.167 27.167c43.886 43.886 115.984 43.886 159.869 0s43.886-114.939 0-159.869l-27.167 27.167c29.258 29.257 29.258 76.278 0 105.535z"/><path d="m32.967 33.445c-43.886 43.886-43.886 114.939 0 159.869l27.167-27.167c-29.257-29.257-29.257-76.278 0-105.535s76.278-29.257 105.535 0l27.167-27.167c-43.885-43.886-115.983-43.886-159.869 0z"/></g></g></svg>