<?xml version="1.0" encoding="UTF-8"?>
<svg width="60px" height="37px" viewBox="0 0 60 37" version="1.1" xmlns="http://www.w3.org/2000/svg" xmlns:xlink="http://www.w3.org/1999/xlink">
    <!-- Generator: Sketch 59.1 (86144) - https://sketch.com -->
    <title>Path</title>
    <desc>Created with Sketch.</desc>
    <g id="Page-1" stroke="none" stroke-width="1" fill="none" fill-rule="evenodd">
        <g id="download" fill="#F5AF19" fill-rule="nonzero">
            <path d="M59.0370317,3.6963433 L57.0717809,1.69300358 C56.4532806,1.06736113 55.6304019,0.722689915 54.7509412,0.722689915 C53.8719683,0.722689915 53.048114,1.06736113 52.4296137,1.69300358 L30.0114138,24.3889612 L7.56736188,1.66781987 C6.94983706,1.04217742 6.12598285,0.698 5.24700991,0.698 C4.36803698,0.698 3.54369499,1.04217742 2.92568239,1.66781987 L0.959943804,3.65881462 C-0.319981268,4.95355377 -0.319981268,7.06256633 0.959943804,8.35730548 L27.6822819,35.50683 C28.2998067,36.1319786 29.1226854,36.5724467 30.0094627,36.5724467 L30.019706,36.5724467 C30.8991668,36.5724467 31.7220454,36.1314848 32.3395702,35.50683 L59.0370317,8.43088142 C59.6555321,7.80573277 59.9950244,6.94751132 59.996,6.05768678 C59.996,5.16736844 59.6555321,4.32099815 59.0370317,3.6963433 Z" id="Path"></path>
        </g>
    </g>
</svg>