<svg width="167" height="167" xmlns="http://www.w3.org/2000/svg"><path d="M155.743 92.408c1.045-6.269 1.045-11.494 0-17.763l10.449-10.449-10.449-26.122h-14.629c-3.135-4.18-8.359-8.359-12.539-12.539V10.906L102.453.457 92.004 10.906c-6.269-1.045-11.494-1.045-17.763 0L63.792.457 37.67 10.906v14.629c-4.18 3.135-8.359 8.359-12.539 12.539H10.502L.053 64.196l10.449 10.449c-1.045 6.269-1.045 11.494 0 17.763L.053 102.857l10.449 26.122h14.629c3.135 4.18 8.359 8.359 12.539 12.539v14.629l26.122 10.449 10.449-10.449c6.269 1.045 11.494 1.045 17.763 0l10.449 10.449 26.122-10.449v-14.629c4.18-3.135 8.359-8.359 12.539-12.539h14.629l10.449-26.122-10.449-10.449zm-83.592 21.943c-17.763-7.314-26.122-27.167-18.808-43.886 7.314-17.763 27.167-26.122 43.886-18.808 17.763 7.314 26.122 27.167 18.808 43.886-7.315 17.763-27.168 26.122-43.886 18.808z" fill="#4CDBC4"/></svg>