<svg height="512" width="512" xmlns="http://www.w3.org/2000/svg"><path d="M512 256c0 11.49-.76 22.8-2.23 33.89C493.19 415.25 26.05 421.65 4.21 302.44 1.44 287.38 0 271.86 0 256 0 114.62 114.62 0 256 0s256 114.62 256 256z" fill="#8bc852"/><path d="M66.537 49.376a226.253 226.253 0 0 0-10.68 10.715c-15.462 16.584-15.462 42.461 0 59.045 10.86 11.648 22.907 22.11 36.14 31.385a8.007 8.007 0 0 0 9.186 0c22.072-15.47 40.844-34.242 56.314-56.314a8.007 8.007 0 0 0 0-9.186c-9.134-13.032-19.419-24.914-30.855-35.644-16.942-15.899-43.162-15.899-60.105-.001zm390.936 0a226.253 226.253 0 0 1 10.68 10.715c15.462 16.584 15.462 42.461 0 59.045-10.86 11.648-22.907 22.11-36.14 31.385a8.007 8.007 0 0 1-9.186 0c-22.072-15.47-40.844-34.242-56.314-56.314a8.007 8.007 0 0 1 0-9.186c9.134-13.032 19.419-24.914 30.855-35.644 16.943-15.899 43.163-15.899 60.105-.001z" fill="#2f373b"/><g fill="#181e21"><path d="M439.911 72.171a112.499 112.499 0 0 1 5.331 5.348c7.718 8.278 7.718 21.195 0 29.473a114.23 114.23 0 0 1-18.039 15.666 3.996 3.996 0 0 1-4.585 0c-11.018-7.722-20.387-17.092-28.11-28.11a3.996 3.996 0 0 1 0-4.585 114.19 114.19 0 0 1 15.401-17.792 21.88 21.88 0 0 1 30.002 0zm-355.811 0a112.499 112.499 0 0 0-5.331 5.348c-7.718 8.278-7.718 21.195 0 29.473a114.23 114.23 0 0 0 18.039 15.666 3.996 3.996 0 0 0 4.585 0c11.018-7.722 20.387-17.092 28.11-28.11a3.996 3.996 0 0 0 0-4.585 114.19 114.19 0 0 0-15.401-17.792 21.88 21.88 0 0 0-30.002 0z"/></g><path d="M509.77 289.89C493.19 415.25 385.89 512 256 512 130.48 512 26.05 421.65 4.21 302.44c60.13-78.7 153.26-134.28 257.8-134.28 98.89 0 187.56 49.74 247.76 121.73z" fill="#2f373b"/><path d="M483.64 254.016c0-111.38-99.229-224.285-221.634-224.285S40.371 142.636 40.371 254.016 139.6 400.847 262.005 400.847s221.635-35.45 221.635-146.831z" fill="#f2f2f2"/><path d="M389.221 382.596c-36 12.95-79.87 18.25-127.21 18.25-122.41 0-221.64-35.45-221.64-146.83s99.23-224.28 221.64-224.28c.7 0 1.39 0 2.08.01-83.01 35.3-141.91 122.01-141.91 207.82 0 111.38 99.23 146.83 221.63 146.83 15.56 0 30.75-.57 45.41-1.8z" fill="#e2e0e0"/><path d="M303.805 273.372a5 5 0 0 0-6.376-3.057c-.278.098-2.407.859-5.987 2.383a4.944 4.944 0 0 0 .009-2.471 4.998 4.998 0 0 0-6.1-3.576c-1.282.334-31.828 8.475-68.925 33.095a283.495 283.495 0 0 0-25.194 18.836c-.169.116-.342.221-.499.36-9.3 8.239-22.9 4.935-23.018 4.906a5 5 0 1 0-2.518 9.678c.321.084 3.717.933 8.534 1.006-23.953 23.747-47.831 55.983-64.049 98.797a5 5 0 1 0 9.352 3.543c25.235-66.62 69.721-106.691 102.596-128.575 21.315-14.189 40.647-22.79 52.855-27.443-8.481 4.501-18.79 10.577-30.045 18.502-26.875 18.924-64.302 52.386-89.98 104.326a5 5 0 0 0 8.964 4.432c15.762-31.881 36.128-56.531 55.518-74.942-.202 4.015.159 6.949.198 7.249a4.994 4.994 0 0 0 5.593 4.305 5.006 5.006 0 0 0 4.324-5.59c-.471-3.745-.491-14.403 4.87-19.209a275.67 275.67 0 0 1 15.977-12.188c27.988-19.761 50.465-27.853 50.846-27.989a5.003 5.003 0 0 0 3.055-6.378z" fill="#69af81"/><g fill="#545f63"><path d="M184.579 236.572c-41.817 41.817-67.484 83.948-100.989 50.443s-26.768-94.566 15.049-136.382 102.877-48.554 136.382-15.049-8.625 59.172-50.442 100.988zm154.852 0c41.817 41.817 67.484 83.948 100.989 50.443s26.768-94.566-15.049-136.382-102.877-48.554-136.382-15.049 8.626 59.172 50.442 100.988z"/></g><g fill="#d1d1d1"><path d="M205.141 285.343a7.5 7.5 0 0 1 0-15c46.696 0 49.284-47.639 49.371-49.667a7.51 7.51 0 0 1 7.796-7.181c4.131.167 7.348 3.635 7.192 7.767-.024.649-.692 16.074-8.75 31.604-7.688 14.815-23.576 32.477-55.609 32.477z"/><path d="M318.87 285.343c-32.033 0-47.921-17.662-55.609-32.478-8.058-15.53-8.726-30.955-8.75-31.604a7.5 7.5 0 0 1 7.212-7.777 7.492 7.492 0 0 1 7.777 7.196c.09 2.077 2.7 49.664 49.37 49.664a7.5 7.5 0 0 1 0 14.999z"/></g><circle cx="339.153" cy="186.955" fill="#2f373b" r="27.138"/><circle cx="350.463" cy="182.166" fill="#fff" r="11.629"/><circle cx="184.857" cy="186.955" fill="#2f373b" r="27.138"/><path d="M191.204 213.341a26.621 26.621 0 0 1-6.344.755c-14.989 0-27.141-12.152-27.141-27.141s12.152-27.141 27.141-27.141c2.18 0 4.31.256 6.344.755-11.933 2.849-20.785 13.589-20.785 26.386s8.852 23.537 20.785 26.386zm154.296 0a26.621 26.621 0 0 1-6.344.755c-14.989 0-27.141-12.152-27.141-27.141s12.152-27.141 27.141-27.141c2.18 0 4.31.256 6.344.755-11.933 2.849-20.785 13.589-20.785 26.386.001 12.797 8.853 23.537 20.785 26.386z" fill="#181e21"/><circle cx="196.166" cy="182.166" fill="#fff" r="11.629"/><path d="M283.554 228.402l12.568-21.769c9.873-17.1-2.468-38.476-22.214-38.476h-25.137c-19.746 0-32.087 21.375-22.214 38.476l12.568 21.769c9.874 17.101 34.556 17.101 44.429 0z" fill="#2f373b"/></svg>