<svg width="168" height="167" xmlns="http://www.w3.org/2000/svg"><path d="M156.624 92.527c1.045-6.269 1.045-11.494 0-17.763l10.449-10.449-10.449-26.122h-14.629c-3.135-4.18-8.359-8.359-12.539-12.539V11.025L103.334.576 92.885 11.025c-6.269-1.045-11.494-1.045-17.763 0L64.673.576 38.551 11.025v14.629c-4.18 3.135-8.359 8.359-12.539 12.539H11.383L.934 64.315l10.449 10.449c-1.045 6.269-1.045 11.494 0 17.763L.934 102.976l10.449 26.122h14.629c3.135 4.18 8.359 8.359 12.539 12.539v14.629l26.122 10.449 10.449-10.449c6.269 1.045 11.494 1.045 17.763 0l10.449 10.449 26.122-10.449v-14.629c4.18-3.135 8.359-8.359 12.539-12.539h14.629l10.449-26.122-10.449-10.449zm-84.636 22.987C54.225 108.2 45.866 88.347 53.18 71.628c7.314-17.763 27.167-26.122 43.886-18.808 17.763 7.314 26.122 27.167 18.808 43.886-6.27 17.763-26.123 26.123-43.886 18.808z" fill="#FF7058"/></svg>