<?xml version="1.0" encoding="UTF-8"?>
<svg width="101px" height="94px" viewBox="0 0 101 94" version="1.1" xmlns="http://www.w3.org/2000/svg" xmlns:xlink="http://www.w3.org/1999/xlink">
    <!-- Generator: Sketch 52.1 (67048) - http://www.bohemiancoding.com/sketch -->
    <title>Asset 18</title>
    <desc>Created with Sketch.</desc>
    <defs>
        <linearGradient x1="108.071442%" y1="0%" x2="10.4605159%" y2="97.353685%" id="linearGradient-1">
            <stop stop-color="#FFFFFF" offset="0%"></stop>
            <stop stop-color="#2B4D6F" offset="100%"></stop>
        </linearGradient>
        <linearGradient x1="108.071442%" y1="0%" x2="7.80720838%" y2="100%" id="linearGradient-2">
            <stop stop-color="#FFFFFF" offset="0%"></stop>
            <stop stop-color="#D1E6F9" stop-opacity="0" offset="100%"></stop>
        </linearGradient>
        <linearGradient x1="108.071442%" y1="0%" x2="7.80720838%" y2="100%" id="linearGradient-3">
            <stop stop-color="#FFFFFF" offset="0%"></stop>
            <stop stop-color="#2B4D6F" offset="97.353685%"></stop>
        </linearGradient>
    </defs>
    <g id="UI" stroke="none" stroke-width="1" fill="none" fill-rule="evenodd">
        <g id="newsletter-signup-&gt;-success" transform="translate(-636.000000, -1064.000000)">
            <g id="Asset-18" transform="translate(636.000000, 1064.000000)">
                <path d="M25.2139286,32.3637179 C24.1100732,32.3629577 23.027264,32.0609115 22.0817262,31.49 C21.8581156,31.3742525 21.7175732,31.1431797 21.7173641,30.890934 C21.717155,30.6386884 21.8573142,30.4073818 22.0807325,30.2912621 C22.3041509,30.1751424 22.5735293,30.1935955 22.7791071,30.3391026 C24.662937,31.4724053 27.0775713,31.154796 28.6058549,29.5726805 C30.1341385,27.990565 30.3728072,25.5614119 29.1817857,23.7108974 C29.0334823,23.5085698 29.0094942,23.2404535 29.1195163,23.014908 C29.2295384,22.7893625 29.4553828,22.6436731 29.7057742,22.6367203 C29.9561655,22.6297675 30.1897113,22.7627008 30.3120238,22.9817949 C31.5192972,24.8525229 31.608991,27.2352562 30.5457903,29.1918433 C29.4825896,31.1484303 27.4368077,32.3654469 25.2139286,32.3637179 Z" id="Path" fill="#00B3E3"></path>
                <path d="M97.525119,57.7858974 C97.2707409,57.7840065 97.0387326,57.6398326 96.9239286,57.4123077 C96.0403542,55.6425704 94.5056755,54.2858565 92.6434524,53.6282051 C92.2932431,53.5033205 92.1102524,53.1176225 92.2346429,52.7665385 C92.2931948,52.5984107 92.4162222,52.4606265 92.5764659,52.3837147 C92.7367097,52.3068029 92.9209387,52.2971141 93.0883333,52.3567949 C95.2789684,53.1290704 97.0850894,54.7232981 98.1263095,56.8037179 C98.2886451,57.138542 98.1553412,57.5420394 97.8257143,57.7135897 C97.7325438,57.7609418 97.629583,57.7857088 97.525119,57.7858974 Z" id="Path" fill="#00B3E3"></path>
                <polygon id="Path" fill="#00BCD5" points="82.5434524 83.3105128 81.6116071 85.7991026 84.9782738 84.3589744"></polygon>
                <polygon id="Path" fill="#00BCD5" points="54.2634524 14.4314103 54.9247619 9.15294872 49.0391071 13.5094872"></polygon>
                <ellipse id="Oval" fill="#FF4081" cx="42.1915476" cy="19.5411538" rx="1.54505952" ry="1.54858974"></ellipse>
                <ellipse id="Oval" fill="#FF4081" cx="46.6704167" cy="34.4666667" rx="1" ry="1"></ellipse>
                <ellipse id="Oval" fill="#FF4081" cx="96.7435714" cy="42.619359" rx="1.54505952" ry="1.54858974"></ellipse>
                <path d="M14.2086826,47.4132117 C13.847973,47.415159 13.5117113,47.2307034 13.3189207,46.9251348 C13.1657507,46.6880714 13.1132535,46.3995637 13.1730666,46.1235683 C13.2328798,45.8475729 13.4000618,45.6068915 13.6375517,45.4548784 L45.8072541,24.8712887 C46.3052966,24.5551411 46.9647438,24.7035185 47.2801707,25.2026989 C47.5955976,25.7018794 47.4475584,26.3628333 46.949516,26.678981 L14.7858255,47.2505194 C14.6118063,47.3563936 14.4122524,47.4126463 14.2086826,47.4132117 Z" id="Path" fill="url(#linearGradient-1)"></path>
                <path d="M42.5342262,70.5 C42.0824442,70.6319064 41.5978666,70.4507407 41.3426369,70.0545088 C41.0874071,69.6582768 41.1221358,69.1410736 41.4280357,68.7826923 L66.4255357,39.8596154 C66.8201294,39.4647542 67.4519177,39.4421504 67.8735968,39.8078075 C68.2952759,40.1734645 68.3638262,40.8033636 68.0307143,41.2515385 L43.0332143,70.1746154 C42.8990779,70.3260463 42.7267052,70.4384487 42.5342262,70.5 Z" id="Path" fill="url(#linearGradient-2)"></path>
                <path d="M44.5422024,44.2282051 C44.074228,44.3009981 43.6149854,44.0532578 43.4178601,43.621674 C43.2207348,43.1900901 43.3337393,42.6797809 43.6945238,42.3723077 L60.3955952,27.7782051 C60.6773088,27.4953945 61.0931262,27.3941642 61.4728873,27.5159394 C61.8526483,27.6377147 62.1326212,27.9620591 62.1982359,28.3562449 C62.2638505,28.7504308 62.1040954,29.1483055 61.7843452,29.3870513 L45.0892857,43.9871795 C44.9338196,44.1185402 44.7438819,44.2022201 44.5422024,44.2282051 Z" id="Path" fill="url(#linearGradient-3)"></path>
                <path d="M67.2732143,61.1241026 C66.8562469,61.3329091 66.3522275,61.2454226 66.0296002,60.9082391 C65.7069728,60.5710556 65.6408417,60.0626677 65.8664286,59.6538462 L76.952381,40.4019231 C77.1094281,40.0172087 77.4762374,39.7599211 77.8906482,39.7438028 C78.305059,39.7276846 78.6906581,39.9557079 78.8769784,40.3270673 C79.0632986,40.6984266 79.0159843,41.144647 78.7559524,41.4684615 L67.6880357,60.714359 C67.5917864,60.8879545 67.4478006,61.0301777 67.2732143,61.1241026 Z" id="Path" fill="url(#linearGradient-3)"></path>
                <path d="M0.668048664,55.3249794 C0.370681665,55.3226164 0.110075406,55.125016 0.0269164788,54.8388513 C-0.0562424485,54.5526866 0.0577413159,54.245733 0.307334379,54.0836973 L9.25304866,48.3472871 C9.45474989,48.1900552 9.72786757,48.1608037 9.95816235,48.2717679 C10.1884571,48.382732 10.3362407,48.6147887 10.3396983,48.8708733 C10.343156,49.126958 10.2016918,49.3629379 9.97447724,49.4801076 L1.02876295,55.2165178 C0.921856008,55.287595 0.796337094,55.3253367 0.668048664,55.3249794 Z" id="Path" fill="url(#linearGradient-2)" opacity="0.29124814"></path>
                <path d="M71.4927325,79.5102119 C71.365774,79.507983 71.2399692,79.4856118 71.1199944,79.4439299 C70.5802494,79.2259791 70.3131903,78.6156931 70.518804,78.0700837 L83.9493992,42.2657247 C84.1552568,41.7166262 84.7662548,41.4387558 85.3141016,41.6450837 C85.8619483,41.8514116 86.1391853,42.4638057 85.9333278,43.0129042 L72.5027325,78.8172632 C72.3485529,79.2409575 71.9426051,79.5194733 71.4927325,79.5102119 Z" id="Path" fill="url(#linearGradient-3)"></path>
                <path d="M66.8008357,93.8720162 C66.7207425,93.8727093 66.6412246,93.8584043 66.5663714,93.8298368 C66.3990133,93.7676703 66.2634762,93.6408995 66.1900457,93.477851 C66.1166152,93.3148024 66.1114115,93.1290661 66.1755976,92.9621444 L69.9150023,82.9897086 C70.0470572,82.6426787 70.4322244,82.4657404 70.7807166,82.5920162 C70.9480747,82.6541827 71.0836118,82.7809535 71.1570423,82.944002 C71.2304728,83.1070506 71.2356764,83.2927869 71.1714904,83.4597086 L67.4320857,93.4381701 C67.3335487,93.7013808 67.0813112,93.8747389 66.8008357,93.8720162 Z" id="Path" fill="url(#linearGradient-2)" opacity="0.29124814"></path>
                <polygon id="Path" fill="#DAEBF9" points="49.0391071 23.6867949 100.501012 0 70.0807738 39.0883333 63.8764881 25.3619231"></polygon>
                <polygon id="Path" fill="#76B4EF" points="63.8764881 25.3619231 100.501012 0 70.0807738 39.0883333"></polygon>
                <polygon id="Path" fill="#1782E2" points="68.3794048 27.5191026 70.0807738 39.0883333 75.6477976 31.9358974"></polygon>
                <polygon id="Path" fill="#FFFFFF" points="100.501012 0 87.677619 39.0883333 68.3794048 27.6155128"></polygon>
            </g>
        </g>
    </g>
</svg>