<?xml version="1.0" encoding="UTF-8"?>
<svg width="112px" height="126px" viewBox="0 0 112 126" version="1.1" xmlns="http://www.w3.org/2000/svg" xmlns:xlink="http://www.w3.org/1999/xlink">
    <!-- Generator: Sketch 59.1 (86144) - https://sketch.com -->
    <title>Shape</title>
    <desc>Created with Sketch.</desc>
    <g id="Page-1" stroke="none" stroke-width="1" fill="none" fill-rule="evenodd">
        <g id="css3-plain" fill="#444D50" fill-rule="nonzero">
            <path d="M0.76,-1.42108547e-14 L10.815,112.883 L55.933,125.463 L101.177,112.837 L111.24,-1.42108547e-14 L0.76,-1.42108547e-14 Z M90.351,25.862 L87.004,63.467 L87.014,63.67 L87,64.137 L87,64.133 L84.622,90.427 L84.36,92.763 L56,100.607 L56,100.608 L55.978,100.627 L27.667,92.739 L25.75,71 L39.633,71 L40.618,82.054 L56.004,86.224 L56,86.232 L56,86.23 L71.443,82.001 L73.075,64 L40.792,64 L40.515,60.957 L39.884,53.828 L39.553,50 L74.302,50 L75.566,36 L22.64,36 L22.363,32.959 L21.733,25.828 L21.401,22 L90.682,22 L90.351,25.862 L90.351,25.862 Z" id="Shape"></path>
        </g>
    </g>
</svg>