<?xml version="1.0" encoding="UTF-8"?>
<svg width="128px" height="128px" viewBox="0 0 128 128" version="1.1" xmlns="http://www.w3.org/2000/svg" xmlns:xlink="http://www.w3.org/1999/xlink">
    <!-- Generator: Sketch 59.1 (86144) - https://sketch.com -->
    <title>Path</title>
    <desc>Created with Sketch.</desc>
    <g id="Page-1" stroke="none" stroke-width="1" fill="none" fill-rule="evenodd">
        <g id="git-plain" fill="#444D50" fill-rule="nonzero">
            <path d="M124.742,58.378 L69.625,3.264 C66.453,0.09 61.305,0.09 58.128,3.264 L46.685,14.71 L61.203,29.228 C64.578,28.089 68.446,28.853 71.135,31.542 C73.838,34.248 74.597,38.149 73.428,41.535 L87.42,55.529 C90.805,54.362 94.712,55.116 97.414,57.824 C101.194,61.601 101.194,67.724 97.414,71.503 C93.634,75.283 87.513,75.283 83.731,71.503 C80.889,68.659 80.186,64.484 81.626,60.982 L68.578,47.933 L68.576,82.274 C69.498,82.729 70.367,83.337 71.135,84.102 C74.914,87.879 74.914,94 71.135,97.785 C67.356,101.562 61.231,101.562 57.456,97.785 C53.678,94.001 53.368,87.88 57.145,84.102 C58.079,83.169 59,82.464 60,81.992 L60,47.333 C59,46.861 58.08,46.161 57.144,45.222 C54.283,42.362 53.748,38.162 55.216,34.646 L40.983,20.333 L3.229,58.123 C0.054,61.3 0.074,66.448 3.249,69.623 L58.375,124.737 C61.548,127.911 66.7,127.911 69.878,124.737 L124.738,69.879 C127.913,66.703 127.916,61.552 124.742,58.378 Z" id="Path"></path>
        </g>
    </g>
</svg>