<?xml version="1.0" encoding="UTF-8"?>
<svg width="110px" height="125px" viewBox="0 0 110 125" version="1.1" xmlns="http://www.w3.org/2000/svg" xmlns:xlink="http://www.w3.org/1999/xlink">
    <!-- Generator: Sketch 59.1 (86144) - https://sketch.com -->
    <title>Shape</title>
    <desc>Created with Sketch.</desc>
    <g id="Page-1" stroke="none" stroke-width="1" fill="none" fill-rule="evenodd">
        <g id="html5-plain" fill="#444D50" fill-rule="nonzero">
            <path d="M0.032,0 L10.037,112.093 L54.933,124.494 L99.953,112.107 L109.968,0 L0.032,0 Z M89.158,26.539 L88.531,33.711 L88.255,37 L35.59,37 L36.847,51 L87.003,51 L86.667,54.471 L83.434,90.59 L83.196,92.86 L55,100.609 L55,100.611 L54.966,100.629 L26.789,93.206 L24.876,72 L38.691,72 L39.67,82.919 L54.957,87 L55,87 L55,86.454 L70.355,82.579 L71.959,65 L24.261,65 L20.878,26.883 L20.549,23 L89.488,23 L89.158,26.539 L89.158,26.539 Z" id="Shape"></path>
        </g>
    </g>
</svg>