<?xml version="1.0" encoding="UTF-8"?>
<svg width="126px" height="120px" viewBox="0 0 126 120" version="1.1" xmlns="http://www.w3.org/2000/svg" xmlns:xlink="http://www.w3.org/1999/xlink">
    <!-- Generator: Sketch 59.1 (86144) - https://sketch.com -->
    <title>Shape</title>
    <desc>Created with Sketch.</desc>
    <g id="Page-1" stroke="none" stroke-width="1" fill="none" fill-rule="evenodd">
        <g id="jquery-plain" transform="translate(0.000000, -1.000000)" fill="#444D50" fill-rule="nonzero">
            <path d="M64.283,103.928 C63.455,103.741 62.65,103.482 61.842,103.243 L61.233,103.058 C60.443,102.816 59.66,102.561 58.881,102.293 L58.558,102.176 C57.86,101.931 57.17,101.672 56.484,101.407 L55.902,101.178 C55.15,100.881 54.402,100.571 53.664,100.247 L53.217,100.049 C52.582,99.761 51.954,99.471 51.328,99.17 L50.782,98.908 C50.291,98.669 49.805,98.415 49.321,98.165 C48.997,97.994 48.667,97.833 48.346,97.655 C47.754,97.338 47.173,97.009 46.595,96.673 L46.004,96.343 C45.235,95.891 44.475,95.422 43.724,94.946 L43.109,94.536 C42.563,94.185 42.021,93.827 41.486,93.457 L40.963,93.09 C40.447,92.725 39.937,92.356 39.429,91.981 L38.75,91.467 C38.286,91.112 37.823,90.754 37.366,90.385 L36.749,89.89 C36.168,89.411 35.593,88.931 35.025,88.437 L34.837,88.278 C34.223,87.739 33.62,87.186 33.025,86.631 L32.515,86.14 C32.074,85.72 31.64,85.297 31.213,84.863 L30.703,84.354 C30.16,83.798 29.627,83.235 29.104,82.664 L29.026,82.58 C28.473,81.976 27.934,81.359 27.405,80.736 L26.981,80.232 C26.586,79.757 26.196,79.276 25.814,78.79 L25.387,78.258 C24.928,77.662 24.479,77.069 24.04,76.464 C11.89,59.89 7.524,37.032 17.236,18.26 L8.625,29.181 C-2.404,45.032 -1.031,65.657 7.394,82.501 C7.594,82.905 7.805,83.302 8.011,83.699 L8.406,84.458 L8.651,84.895 L9.09,85.681 C9.352,86.142 9.62,86.601 9.895,87.06 L10.353,87.816 C10.657,88.307 10.968,88.792 11.287,89.276 L11.685,89.89 C12.123,90.545 12.573,91.199 13.037,91.841 L13.076,91.891 L13.304,92.199 C13.704,92.752 14.118,93.298 14.536,93.838 L14.999,94.428 C15.372,94.897 15.751,95.363 16.138,95.827 L16.573,96.347 C17.091,96.957 17.62,97.564 18.159,98.159 L18.191,98.192 L18.253,98.26 C18.779,98.835 19.319,99.397 19.865,99.959 L20.382,100.48 C20.805,100.906 21.235,101.325 21.669,101.742 L22.195,102.242 C22.775,102.789 23.361,103.325 23.959,103.849 L23.987,103.871 L24.294,104.133 C24.82,104.589 25.356,105.042 25.897,105.486 L26.561,106.015 C27.002,106.369 27.448,106.717 27.897,107.059 L28.611,107.602 C29.106,107.967 29.606,108.326 30.11,108.677 L30.656,109.064 L30.806,109.171 C31.284,109.5 31.773,109.817 32.262,110.134 L32.892,110.554 C33.641,111.028 34.402,111.497 35.17,111.95 L35.8,112.305 C36.365,112.631 36.934,112.951 37.511,113.264 C37.823,113.432 38.143,113.591 38.457,113.752 C38.864,113.965 39.268,114.181 39.682,114.388 L39.965,114.525 L40.466,114.767 C41.107,115.073 41.753,115.374 42.406,115.664 L42.816,115.848 C43.564,116.175 44.318,116.489 45.079,116.789 L45.63,117.006 C46.334,117.277 47.048,117.545 47.765,117.797 L48.033,117.89 C48.819,118.165 49.614,118.42 50.414,118.669 L50.989,118.841 C51.803,119.086 52.607,119.379 53.447,119.534 C106.786,129.261 122.28,87.481 122.28,87.481 C109.266,104.435 86.168,108.907 64.283,103.928 L64.283,103.928 Z M45.069,60.697 C46.264,62.41 47.589,64.448 49.174,65.824 C49.749,66.457 50.35,67.075 50.964,67.682 L51.436,68.147 C52.032,68.725 52.638,69.293 53.264,69.845 L53.338,69.909 L53.356,69.927 C54.049,70.535 54.764,71.118 55.491,71.694 L55.975,72.072 C56.704,72.631 57.447,73.179 58.208,73.703 L58.273,73.752 C58.609,73.984 58.952,74.2 59.293,74.424 L59.775,74.743 C60.319,75.092 60.871,75.432 61.431,75.758 L61.665,75.894 C62.148,76.172 62.638,76.446 63.128,76.712 L63.649,76.983 C63.988,77.16 64.327,77.341 64.673,77.513 L64.828,77.583 C65.53,77.929 66.239,78.263 66.964,78.578 L67.436,78.772 C68.014,79.018 68.599,79.258 69.186,79.482 L69.936,79.757 C70.469,79.955 71.004,80.135 71.544,80.316 L72.271,80.549 C73.038,80.787 73.796,81.088 74.595,81.221 C115.778,88.044 125.285,56.335 125.285,56.335 C116.715,68.678 100.117,74.568 82.406,69.97 C81.619,69.763 80.844,69.539 80.073,69.296 L79.373,69.069 C78.825,68.892 78.281,68.704 77.741,68.507 L77.005,68.233 C76.414,68.005 75.829,67.771 75.249,67.525 L74.776,67.325 C74.049,67.009 73.333,66.675 72.628,66.326 C72.264,66.149 71.907,65.962 71.55,65.778 L70.928,65.458 C70.47,65.21 70.014,64.952 69.565,64.688 L69.239,64.503 C68.681,64.178 68.133,63.842 67.589,63.495 L67.091,63.163 C66.733,62.931 66.374,62.694 66.022,62.456 C65.263,61.932 64.525,61.384 63.796,60.828 L63.295,60.433 C55.543,54.313 49.398,45.947 46.476,36.462 C43.414,26.626 44.075,15.584 49.379,6.622 L42.862,15.822 C34.885,27.3 35.319,42.666 41.541,54.805 C42.584,56.843 43.757,58.818 45.069,60.697 L45.069,60.697 Z M88.476,46.498 C88.815,46.623 89.154,46.735 89.498,46.852 L89.949,46.995 C90.433,47.147 90.915,47.324 91.416,47.419 C114.155,51.813 120.324,35.75 121.965,33.385 C116.562,41.164 107.483,43.031 96.342,40.327 C95.462,40.114 94.494,39.796 93.646,39.495 C92.558,39.107 91.486,38.665 90.445,38.166 C88.466,37.215 86.581,36.062 84.833,34.742 C74.864,27.177 68.671,12.748 75.176,0.997 L71.656,5.848 C66.954,12.768 66.492,21.362 69.755,29.004 C73.196,37.116 80.247,43.479 88.476,46.498 L88.476,46.498 Z" id="Shape"></path>
        </g>
    </g>
</svg>