<?xml version="1.0" encoding="UTF-8"?>
<svg width="54px" height="120px" viewBox="0 0 54 120" version="1.1" xmlns="http://www.w3.org/2000/svg" xmlns:xlink="http://www.w3.org/1999/xlink">
    <!-- Generator: Sketch 59.1 (86144) - https://sketch.com -->
    <title>Shape</title>
    <desc>Created with Sketch.</desc>
    <g id="Page-1" stroke="none" stroke-width="1" fill="none" fill-rule="evenodd">
        <g id="mongodb-plain" fill="#444D50">
            <path d="M53.491,53.282 C53.121,48.492 51.995,43.873 50.429,39.348 C47.185,29.244 41.979,20.302 34.646,12.608 C32.792,10.662 30.73,8.879 29.437,6.457 C28.619,4.925 27.84,3.372 27.043,1.828 L26.538,0.555 C26.453,0.847 26.399,0.951 26.396,1.056 C26.331,3.573 24.905,5.28 23.129,6.873 C21.132,8.666 19.273,10.612 17.354,12.491 C15.386,15.079 13.419,17.667 11.453,20.254 C9.861,23.179 8.271,26.104 6.681,29.029 L3.491,37.646 L3.395,37.78 C1.639,43.548 0.773,49.478 0.347,55.468 C0.187,57.719 0.369,60.003 0.496,62.266 C0.677,65.501 1.239,68.681 2.082,71.811 C5.144,83.183 11.358,92.616 19.853,100.63 C21.432,102.119 23.052,103.473 24.7,104.89 C24.982,103.925 25.207,102.96 25.463,101.995 C25.719,101.034 25.978,100.078 26.151,99.114 C25.977,100.078 25.782,101.034 25.589,101.995 L24.763,104.89 L25.501,107.391 L26.185,111.275 L26.511,115.328 C26.508,116.151 26.475,116.976 26.525,117.798 C26.537,118.008 26.813,118.202 26.967,118.404 L28.343,118.887 L29.777,119.445 L29.531,115.842 L29.52,112.294 L30.015,106.889 L30.374,105.712 L31.401,103.892 C32.669,102.872 34.03,101.946 35.185,100.811 C37.275,98.757 39.36,96.677 41.23,94.428 C43.657,91.511 45.745,88.327 47.421,84.912 C48.543,82.628 49.599,80.298 50.473,77.911 C51.243,75.807 51.72,73.596 52.327,71.432 C52.381,71.276 52.453,71.123 52.487,70.964 C53.741,65.123 53.952,59.223 53.491,53.282 L53.491,53.282 Z M29.892,102.657 L29.087,100.894 L29.892,102.657 L31.075,103.667 L29.892,102.657 Z" id="Shape"></path>
        </g>
    </g>
</svg>