<?xml version="1.0" encoding="UTF-8"?>
<svg width="127px" height="124px" viewBox="0 0 127 124" version="1.1" xmlns="http://www.w3.org/2000/svg" xmlns:xlink="http://www.w3.org/1999/xlink">
    <!-- Generator: Sketch 59.1 (86144) - https://sketch.com -->
    <title>Shape</title>
    <desc>Created with Sketch.</desc>
    <g id="Page-1" stroke="none" stroke-width="1" fill="none" fill-rule="evenodd">
        <g id="mysql-plain" fill="#444D50" fill-rule="nonzero">
            <path d="M125.477,120.783 L122.861,118.246 C120.382,114.954 117.193,112.062 113.846,109.661 C111.177,107.745 105.185,105.157 104.071,102.052 L103.866,101.857 C105.759,101.643 107.969,100.959 109.716,100.49 C112.65,99.704 115.072,99.907 118.102,99.125 C119.468,98.735 121.001,98.344 122.001,97.954 L122.001,97.174 C121.001,95.603 119.574,93.523 117.904,92.101 C113.535,88.381 108.863,84.664 103.953,81.564 C101.23,79.846 97.912,78.729 95.027,77.272 C94.056,76.781 92.375,76.526 91.733,75.71 C90.216,73.778 89.405,71.328 88.235,69.077 C85.786,64.36 83.386,59.209 81.216,54.246 C79.736,50.862 78.773,47.526 76.927,44.49 C68.067,29.923 58.532,21.132 43.76,12.49 C40.615,10.652 36.831,9.927 32.831,8.977 C30.687,8.848 28.54,8.717 26.394,8.586 C25.083,8.04 23.72,6.437 22.492,5.659 C17.596,2.567 5.043,-4.158 1.418,4.684 C-0.871,10.265 4.838,15.709 6.88,18.538 C8.315,20.52 10.15,22.745 11.173,24.976 C11.848,26.443 11.963,27.914 12.54,29.465 C13.958,33.287 15.191,37.445 17.027,40.976 C17.954,42.764 18.976,44.646 20.149,46.244 C20.867,47.225 22.099,47.657 22.294,49.171 C21.09,50.857 21.021,53.475 20.344,55.611 C17.294,65.226 18.446,77.178 22.881,84.294 C24.241,86.48 27.447,91.165 31.856,89.367 C35.712,87.797 35.082,82.929 36.185,78.635 C36.434,77.663 36,76.947 37,76.294 L37,76.489 C38,78.83 39.11,81.172 40.282,83.513 C42.882,87.7 47.171,92.075 51.08,95.027 C53.107,96.558 55,99.204 57,100.1 L57,99.999 L57.221,99.999 C56.714,98.999 55.919,98.832 55.271,98.195 C53.744,96.699 52.045,94.813 50.784,93.098 C47.228,88.271 44.086,82.976 41.223,77.476 C39.855,74.85 38.666,71.947 37.514,69.275 C37.071,68.245 37.076,66.683 36.15,66.15 C34.887,68.108 33.028,69.69 32.051,72.003 C30.49,75.699 30.289,80.207 29.71,84.88 C29.367,85.002 29.52,84.918 29.319,85.074 C26.601,84.419 25.647,81.622 24.636,79.221 C22.081,73.151 21.607,63.378 23.855,56.392 C24.437,54.583 27.066,48.891 26.001,47.22 C25.493,45.555 23.817,44.59 22.88,43.317 C21.719,41.743 20.561,39.671 19.757,37.853 C17.666,33.122 16.691,27.809 14.489,23.025 C13.436,20.738 11.657,18.423 10.196,16.391 C8.579,14.138 6.767,12.479 5.512,9.756 C5.067,8.788 4.461,7.238 5.122,6.243 C5.332,5.572 5.629,5.292 6.293,5.073 C7.426,4.2 10.576,5.363 11.756,5.852 C14.885,7.152 17.497,8.352 20.148,10.108 C21.419,10.952 22.707,11.998 24.245,12.998 L26.001,12.998 C28.748,12.998 31.825,13.23 34.392,14.01 C38.927,15.389 42.992,17.552 46.684,19.883 C57.93,26.985 67.125,37.103 73.416,49.161 C74.428,51.103 74.866,52.96 75.757,55.019 C77.555,59.172 79.821,63.447 81.61,67.508 C83.396,71.561 85.136,75.65 87.66,79.022 C88.987,80.794 94.111,81.746 96.44,82.731 C98.073,83.42 100.748,84.14 102.294,85.071 C105.247,86.853 108.108,88.975 110.88,90.926 C112.264,91.9 116.52,94.04 116.733,95.804 C109.87,95.616 104.629,96.256 100.148,98.145 C98.875,98.682 96.843,98.697 96.635,100.292 C97.335,101.025 97.444,102.121 98,103.023 C99.069,104.753 100.876,107.075 102.488,108.291 C104.25,109.621 106.064,111.042 107.952,112.193 C111.311,114.24 115.059,115.41 118.293,117.461 C120.199,118.671 122.251,120.194 124.108,121.558 C125.028,122.233 124.999,123.282 126.999,123.705 L126.999,123.511 C126,122.716 126.053,121.618 125.477,120.783 L125.477,120.783 Z M29.514,21.465 C28.083,21.438 27,21.622 26,21.854 L26,22 L26.198,22 C26.881,23 28.086,24.33 28.929,25.538 L30.881,29.646 L31.074,29.459 C32.283,28.606 32.837,27.248 32.8300655,25.168 C32.347,24.659 32.274,24.022 31.856,23.414 C31.298,22.605 30.217,22.146 29.514,21.465 L29.514,21.465 Z" id="Shape"></path>
        </g>
    </g>
</svg>